<svg width="80" height="81" viewBox="0 0 80 81" fill="none" xmlns="http://www.w3.org/2000/svg">
<g clip-path="url(#clip0)">
<!-- <path d="M34.2128 48.9184C34.5875 49.3001 35.0926 49.4993 35.5976 49.4993C36.1026 49.4993 36.5914 49.3001 36.9824 48.9184L51.4003 34.2296C52.166 33.4494 52.166 32.1881 51.4003 31.408C50.6346 30.6278 49.3964 30.6278 48.6308 31.408L35.5813 44.7026L31.0523 40.0885C30.2866 39.3084 29.0484 39.3084 28.2828 40.0885C27.5171 40.8685 27.5171 42.13 28.2828 42.9101L34.2128 48.9184Z" fill="#4277FF"/>
<path d="M19.127 10.546C19.5017 10.546 19.8764 10.4298 20.2185 10.214C21.1145 9.59994 21.3589 8.35513 20.7562 7.44226C20.1533 6.5294 18.9478 6.28044 18.0354 6.89454C17.1394 7.50865 16.895 8.73686 17.4979 9.64973C17.8726 10.2306 18.4917 10.546 19.127 10.546Z" fill="#4277FF"/>
<path d="M13.4737 15.2767C13.9787 15.2767 14.4838 15.0775 14.8585 14.6957C15.6242 13.9156 15.6242 12.6542 14.8585 11.8741C14.0928 11.094 12.8546 11.094 12.0889 11.8741C11.3232 12.6542 11.3232 13.9156 12.0889 14.6957C12.4636 15.0775 12.9687 15.2767 13.4737 15.2767Z" fill="#4277FF"/>
<path d="M25.5615 7.02729C25.8059 7.02729 26.0665 6.97751 26.3109 6.87792C27.3047 6.46299 27.7771 5.28456 27.3699 4.27211C26.9625 3.25967 25.8059 2.77833 24.8121 3.19327C23.8183 3.60821 23.3459 4.78663 23.7531 5.79908C24.0627 6.56256 24.7958 7.02729 25.5615 7.02729Z" fill="#4277FF"/>
<path d="M7.73929 20.687C8.06513 20.9194 8.45612 21.019 8.83083 21.019C9.4662 21.019 10.0853 20.7037 10.46 20.1393C11.0628 19.2265 10.8184 17.9817 9.92236 17.3841C9.02633 16.7701 7.80447 17.019 7.20168 17.9318C6.59889 18.8448 6.84327 20.0729 7.73929 20.687Z" fill="#4277FF"/>
<path d="M4.62752 27.4447C4.87189 27.5442 5.13256 27.5941 5.37693 27.5941C6.14263 27.5941 6.87575 27.1293 7.18529 26.3658C7.59258 25.3534 7.12013 24.1915 6.12635 23.7601C5.13257 23.3285 3.99215 23.8265 3.56858 24.8389C3.16129 25.8679 3.63374 27.0298 4.62752 27.4447Z" fill="#4277FF"/>
<path d="M32.5512 4.86866C32.6815 4.86866 32.7956 4.85206 32.9259 4.83546C33.9849 4.61969 34.669 3.57405 34.4573 2.49521C34.2455 1.41638 33.2191 0.719281 32.1603 0.935049C31.1013 1.15082 30.417 2.19646 30.6288 3.2753C30.8243 4.20476 31.6388 4.86866 32.5512 4.86866Z" fill="#4277FF"/>
<path d="M2.86843 34.6957C2.99877 34.7124 3.1291 34.7289 3.24314 34.7289C4.15546 34.7289 4.97003 34.0651 5.16554 33.1191C5.37732 32.0401 4.69308 30.9945 3.63413 30.7788C2.57519 30.5631 1.54883 31.2601 1.33704 32.3389C1.12525 33.4344 1.80949 34.48 2.86843 34.6957Z" fill="#4277FF"/>
<path d="M67.6103 11.8741C60.1978 4.32222 50.3414 0.15625 39.8496 0.15625C38.7744 0.15625 37.8947 1.05252 37.8947 2.14796C37.8947 3.24338 38.7744 4.13965 39.8496 4.13965C59.3505 4.13965 75.2022 20.2891 75.2022 40.1563C75.2022 60.0235 59.3505 76.1728 39.8496 76.1728C20.3487 76.1728 4.49711 60.0235 4.49711 40.1563C4.49711 39.0608 3.61738 38.1645 2.54214 38.1645C1.4669 38.1645 0.587158 39.0608 0.587158 40.1563C0.587158 50.8451 4.67632 60.8865 12.0889 68.4384C19.5015 75.9903 29.3579 80.1563 39.8496 80.1563C50.3414 80.1563 60.1978 75.9903 67.6103 68.4384C75.0229 60.8865 79.1121 50.8451 79.1121 40.1563C79.1121 29.4675 75.0229 19.426 67.6103 11.8741Z" fill="#4277FF"/>
<path d="M39.8474 70.8699C56.472 70.8699 69.9975 57.0906 69.9975 40.1534C69.9975 23.2162 56.472 9.43689 39.8474 9.43689C23.2227 9.43689 9.69727 23.2162 9.69727 40.1534C9.69727 49.3875 13.72 58.0466 20.7342 63.91C21.4737 64.5282 22.5652 64.419 23.1722 63.6651C23.7791 62.9118 23.6715 61.7998 22.932 61.1816C16.7227 55.991 13.1616 48.3266 13.1616 40.1531C13.1616 25.162 25.1328 12.9661 39.8474 12.9661C54.5621 12.9661 66.5332 25.1623 66.5332 40.1534C66.5332 55.1444 54.5621 67.3404 39.8474 67.3404C38.8905 67.3404 38.1153 68.1306 38.1153 69.1051C38.1153 70.0798 38.8905 70.8699 39.8474 70.8699Z" fill="#4277FF"/> -->
</g>
<defs>
<clipPath id="clip0">
<rect y="0.15625" width="80" height="80" rx="10" fill="white"/>
</clipPath>
</defs>
</svg>
