<svg width="80" height="81" viewBox="0 0 80 81" fill="none" xmlns="http://www.w3.org/2000/svg">
<g clip-path="url(#clip0)">
<path d="M39.6312 0.15625C17.9818 0.15625 0.368652 18.1003 0.368652 40.1563C0.368652 41.1308 1.14397 41.9209 2.10081 41.9209C3.05767 41.9209 3.83299 41.1308 3.83299 40.1563C3.83299 20.0464 19.8918 3.68566 39.6312 3.68566C59.3704 3.68566 75.4292 20.0464 75.4292 40.1563C75.4292 60.2661 59.3704 76.6268 39.6312 76.6268C32.3211 76.6268 25.2913 74.3975 19.3019 70.1799C13.4481 66.0577 8.97036 60.3323 6.35226 53.6228C5.99889 52.7172 4.99123 52.2748 4.10275 52.6348C3.21356 52.9948 2.7796 54.0209 3.13296 54.9267C6.00466 62.2855 10.9143 68.5637 17.3321 73.0833C23.903 77.7104 31.614 80.1563 39.6312 80.1563C61.2805 80.1563 78.8936 62.2123 78.8936 40.1563C78.8936 18.1003 61.2805 0.15625 39.6312 0.15625Z" fill="#4277FF"/>
<path d="M39.6291 9.4375C23.0044 9.4375 9.479 23.2168 9.479 40.1541C9.479 57.0913 23.0044 70.8706 39.6291 70.8706C56.2537 70.8706 69.7793 57.0913 69.7793 40.1541C69.7793 30.9198 65.7564 22.2608 58.7424 16.3973C58.0028 15.7792 56.9113 15.8884 56.3043 16.6422C55.6975 17.3956 55.8051 18.5076 56.5446 19.1257C62.7539 24.3164 66.3149 31.9809 66.3149 40.1542C66.3149 55.1454 54.3438 67.3414 39.6291 67.3414C24.9145 67.3414 12.9434 55.1452 12.9434 40.1541C12.9434 25.1629 24.9145 12.9669 39.6291 12.9669C40.586 12.9669 41.3613 12.1768 41.3613 11.2022C41.3613 10.2276 40.586 9.4375 39.6291 9.4375Z" fill="#4277FF"/>
<path d="M39.6303 18.4817C38.6735 18.4817 37.8982 19.2718 37.8982 20.2465V40.1558C37.8982 40.6238 38.0806 41.0728 38.4054 41.4037L45.9557 49.0958C46.2942 49.4404 46.7375 49.6128 47.1808 49.6128C47.624 49.6128 48.0675 49.4406 48.4058 49.0958C49.0822 48.4066 49.0822 47.2893 48.4058 46.6004L41.3626 39.425V20.2465C41.3626 19.2718 40.5872 18.4817 39.6303 18.4817Z" fill="#4277FF"/>
</g>
<defs>
<clipPath id="clip0">
<rect y="0.15625" width="80" height="80" rx="10" fill="white"/>
</clipPath>
</defs>
</svg>
