<svg width="80" height="80" viewBox="0 0 80 80" fill="none" xmlns="http://www.w3.org/2000/svg">
<path d="M62.4693 25.7506C62.2352 25.383 61.7813 25.2263 61.3656 25.3572V25.3572C61.2976 25.3787 61.2275 25.3926 61.1565 25.3989L57.8695 25.6899C57.3132 25.7392 56.8119 26.0454 56.5142 26.5179L56.1616 27.0775C55.936 27.4356 55.4973 27.5964 55.0937 27.469V27.469C54.9675 27.4291 54.8513 27.3629 54.7527 27.2746L52.7358 25.4673C51.9261 24.7418 51.328 23.8107 51.0049 22.7727V22.7727L50.8298 22.3247C50.5102 21.5073 50.0022 20.7769 49.3471 20.1929L48.5737 19.5035C48.332 19.2881 48.0368 19.1417 47.7189 19.0799L46.4906 18.8411C46.0632 18.7579 45.6613 19.0726 45.6393 19.5074V19.5074C45.6288 19.7133 45.7077 19.9137 45.8558 20.0573L48.0952 22.2292L48.5503 22.7621C48.9362 23.2139 48.8011 23.9072 48.2739 24.181V24.181C48.0627 24.2907 47.8172 24.3146 47.5888 24.2476L46.8377 24.0276L45.7917 23.594C45.4234 23.4414 45.1898 23.075 45.2067 22.6767V22.6767C45.2237 22.2768 44.988 21.9091 44.6174 21.7577L44.4204 21.6772C43.7063 21.3852 42.9005 21.8024 42.7267 22.5542L42.5428 23.3497C42.4161 23.898 41.9865 24.3252 41.4375 24.4489L41.0928 24.5265C40.5531 24.6481 40.1937 25.1594 40.262 25.7084V25.7084C40.3197 26.1712 40.669 26.5441 41.1271 26.6317L41.7973 26.7599C42.5783 26.9093 43.3306 26.3911 43.4693 25.6081V25.6081C43.6039 24.8488 44.3177 24.334 45.0806 24.446L45.6791 24.5338C45.9376 24.5718 46.1865 24.6589 46.4124 24.7903L46.7044 24.9603C47.0076 25.1368 47.3522 25.2298 47.703 25.2298V25.2298C48.4535 25.2298 49.1399 25.6531 49.4768 26.3237L49.8847 27.1357C50.0484 27.4616 50.2627 27.7596 50.5196 28.0185L53.0046 30.524C53.2054 30.7264 53.2939 31.0145 53.2415 31.2946V31.2946C53.1571 31.7462 52.7353 32.0537 52.2795 31.996L51.1448 31.8523C50.735 31.8004 50.319 31.8717 49.9499 32.057L47.8661 33.1028C46.6793 33.6984 45.6268 34.5305 44.7734 35.5479L43.1194 37.5198C42.951 37.7205 42.8308 37.9571 42.7681 38.2115L42.6618 38.6429C42.5354 39.1557 42.0753 39.5161 41.5471 39.5161V39.5161C41.3821 39.5161 41.219 39.4806 41.069 39.4118L39.9161 38.8837C39.4329 38.6624 38.8766 38.6655 38.3959 38.8922L37.6704 39.2344C37.3222 39.3986 37.1366 39.7842 37.2254 40.1588L37.331 40.6038C37.4397 41.0619 38.0207 41.2056 38.3303 40.8509V40.8509C38.4362 40.7296 38.5877 40.6579 38.7485 40.6529L38.9539 40.6466C39.5639 40.6277 40.0589 41.1356 40.0244 41.7449V41.7449C39.997 42.2285 40.3072 42.667 40.7723 42.8023L40.9479 42.8534C41.1758 42.9197 41.3806 43.0486 41.539 43.2254L41.7117 43.4181C42.2642 44.0349 43.119 44.2844 43.9165 44.0615L44.208 43.98C44.5751 43.8774 44.96 43.8549 45.3366 43.914L47.222 44.2097L49.8539 44.9131C50.0014 44.9525 50.1514 44.9812 50.303 44.9989V44.9989C51.0741 45.0889 51.785 45.4599 52.3 46.0408L53.4042 47.2864C53.7435 47.6692 54.1414 47.9957 54.583 48.2539V48.2539C56.818 49.5603 57.6285 52.3945 56.4222 54.6851L56.2991 54.9189C55.822 55.8248 55.0597 56.5484 54.1302 56.9779V56.9779C53.0096 57.4956 52.1361 58.4479 51.7086 59.6059V59.6059C51.3623 60.5441 50.7233 61.3567 49.89 61.9096L46.8404 63.9332C46.6634 64.0507 46.5346 64.2279 46.4777 64.4326V64.4326C46.2972 65.0813 46.8797 65.681 47.5247 65.4879C58.5628 62.1835 66.6113 52.0246 66.6113 39.9764C66.6079 34.7488 65.0896 29.8661 62.4693 25.7506Z" fill="#4277FF"/>
<path d="M43.0586 54.5751C42.9279 54.1325 42.7507 53.7055 42.5305 53.2999L41.5045 51.4093C41.1294 50.7181 41.1097 49.8886 41.4517 49.1804L42.0314 47.9797C42.3824 47.2526 41.9987 46.3841 41.2248 46.1541V46.1541C41.0162 46.0921 40.8264 45.9792 40.6725 45.8255L39.969 45.1234C39.2659 44.4216 38.3777 43.9342 37.4081 43.7181L34.7619 43.1281C34.5521 43.0813 34.3754 42.941 34.2823 42.7474L33.5939 41.3158C33.4374 40.9904 32.9484 41.1019 32.9484 41.4629V41.4629C32.9484 41.6504 32.7964 41.8024 32.6089 41.8024H32.5141C32.3767 41.8024 32.2473 41.7374 32.1654 41.627L29.8133 38.4575C28.9278 37.2641 28.4496 35.8175 28.4496 34.3315V33.9452C28.4496 32.9107 28.1612 31.8965 27.6169 31.0168V31.0168C26.4175 29.0785 24.1576 28.0675 21.9132 28.4651L21.6675 28.5086C21.3258 28.5692 20.9795 28.5996 20.6324 28.5996H18.4562C18.2487 28.5996 18.0456 28.5393 17.8717 28.426L17.113 27.9318C16.8714 27.7744 16.8558 27.4263 17.0823 27.2479L17.1378 27.2041C17.4777 26.9364 17.2179 26.3937 16.7962 26.4906V26.4906C16.6877 26.5155 16.5941 26.5838 16.5382 26.6801C14.2648 30.5957 12.9424 35.1248 12.9424 39.972C12.9424 54.6996 24.9556 66.6442 39.7759 66.6442C39.9832 66.6442 40.1898 66.6409 40.3957 66.6347C41.9324 66.5885 43.0382 65.1958 42.9053 63.6641V63.6641C42.8776 63.3437 42.9039 63.0223 42.9836 62.7107C43.2934 61.4988 44.0953 58.3498 44.0953 58.2182C44.0939 58.0952 43.4066 55.7532 43.0586 54.5751Z" fill="#4277FF"/>
<path d="M22.2302 22.0992C22.6851 21.9685 23.1488 21.8704 23.6176 21.8054L26.9165 21.3483C27.4216 21.2783 27.9099 21.1174 28.3577 20.8734V20.8734C29.3318 20.3427 30.4755 20.2165 31.5418 20.5219L31.6295 20.547C32.1065 20.6837 32.603 20.7395 33.0983 20.7122L35.2031 20.5964C35.892 20.5585 36.5207 20.1917 36.8926 19.6106V19.6106C37.3544 18.8892 38.2009 18.5115 39.0462 18.6497L39.305 18.692C39.5187 18.7269 39.736 18.7344 39.9516 18.7144L42.9397 18.4359C43.8918 18.3472 44.7767 17.9067 45.4215 17.2005V17.2005C45.6333 16.9686 45.8726 16.7635 46.1342 16.5898L46.1915 16.5518C47.0998 15.9489 48.1995 15.7043 49.2776 15.8655L50.1957 16.0028C50.2233 16.0069 50.2513 16.0069 50.2789 16.0028V16.0028C50.5536 15.9615 50.6052 15.5945 50.3497 15.4852C47.1026 14.0959 43.5357 13.3024 39.7739 13.3024C31.4492 13.3024 24.0051 17.0713 19.0876 22.9901C19.0843 22.994 19.0871 23 19.0922 23V23C19.0928 23 19.0933 22.9999 19.0939 22.9997L22.2302 22.0992ZM40.9084 15.9547L43.1674 14.7188C43.4666 14.5552 43.8293 14.5589 44.125 14.7287V14.7287C44.7336 15.0781 44.7879 15.9355 44.2283 16.3589L43.2608 17.0907C42.9995 17.2884 42.6888 17.4102 42.3627 17.4428L40.6627 17.6123C40.5109 17.6275 40.3585 17.5907 40.2303 17.508V17.508C39.8138 17.2395 39.8195 16.6285 40.2409 16.3677L40.9084 15.9547ZM32.0632 16.879C32.476 16.5702 33.2616 16.3687 33.7378 16.5659V16.5659C33.9075 16.6362 34.0966 16.6444 34.2717 16.589L34.9643 16.3699C35.3267 16.2552 35.7202 16.4075 35.9111 16.7362V16.7362C36.1806 17.2004 35.9335 17.7937 35.4141 17.9293L33.6633 18.3862C33.1044 18.5321 32.5106 18.451 32.0114 18.1607L31.368 17.7866C31.1484 17.6589 31.1452 17.5197 31.356 17.3779C31.5545 17.2444 31.817 17.0633 32.0632 16.879Z" fill="#4277FF"/>
<path d="M4.89174 60.0039C15.9898 79.1085 40.6578 85.6781 59.8806 74.6478C79.1034 63.6175 85.7129 39.1007 74.6149 19.996C63.5167 0.891434 38.8488 -5.67808 19.6259 5.35218C9.14566 11.3659 2.00356 21.6279 0.0311905 33.5069C-0.176627 34.7593 0.675907 35.9426 1.93677 36.149C3.19698 36.3559 4.38726 35.5081 4.59508 34.2557C6.34098 23.7398 12.6625 14.656 21.9389 9.33309C38.953 -0.42976 60.7863 5.38472 70.6095 22.2944C80.4324 39.2042 74.582 60.9038 57.5679 70.6666C40.5538 80.4295 18.7205 74.6151 8.8974 57.7054C8.25869 56.6059 6.84428 56.2294 5.73814 56.864C4.63213 57.4988 4.25289 58.9043 4.89174 60.0039Z" fill="#4277FF"/>
</svg>
