<svg width="346" height="176" viewBox="0 0 346 176" fill="none" xmlns="http://www.w3.org/2000/svg">
<path d="M339.798 175.169C339.928 175.143 340.055 175.108 340.183 175.075C340.292 175.047 340.402 175.024 340.509 174.991C340.634 174.953 340.756 174.906 340.878 174.862C340.986 174.823 341.095 174.788 341.202 174.743C341.317 174.695 341.428 174.639 341.54 174.586C341.649 174.534 341.76 174.486 341.867 174.428C341.974 174.371 342.075 174.306 342.179 174.244C342.286 174.18 342.394 174.12 342.498 174.05C342.609 173.976 342.712 173.894 342.819 173.814C342.909 173.747 343.001 173.684 343.089 173.612C343.251 173.479 343.405 173.337 343.555 173.191C343.582 173.165 343.611 173.143 343.638 173.116C343.666 173.088 343.69 173.057 343.717 173.028C343.861 172.88 344.001 172.728 344.133 172.568C344.21 172.474 344.277 172.376 344.349 172.279C344.423 172.179 344.501 172.082 344.57 171.978C344.644 171.867 344.709 171.752 344.777 171.638C344.834 171.542 344.895 171.448 344.948 171.349C345.01 171.234 345.062 171.115 345.117 170.998C345.166 170.894 345.218 170.791 345.263 170.684C345.311 170.569 345.349 170.452 345.391 170.335C345.432 170.221 345.476 170.108 345.511 169.992C345.547 169.874 345.573 169.754 345.603 169.634C345.632 169.516 345.666 169.4 345.689 169.281C345.717 169.14 345.734 168.998 345.754 168.856C345.768 168.756 345.787 168.657 345.797 168.556C345.822 168.307 345.835 168.058 345.835 167.808V7.5C345.835 3.357 342.478 0 338.335 0H102.085C102.019 0 101.955 0.00799451 101.889 0.00999451C101.746 0.0139945 101.604 0.0199977 101.462 0.0319977C101.349 0.0409977 101.237 0.0540002 101.125 0.0690002C100.997 0.0850002 100.87 0.103999 100.743 0.126999C100.624 0.147999 100.506 0.172997 100.389 0.199997C100.27 0.227997 100.151 0.258 100.033 0.292C99.916 0.325 99.801 0.360994 99.687 0.398994C99.57 0.438994 99.453 0.481 99.338 0.527C99.229 0.57 99.122 0.613995 99.016 0.661995C98.898 0.714995 98.781 0.772001 98.665 0.831001C98.566 0.882001 98.469 0.933998 98.373 0.988998C98.257 1.055 98.143 1.125 98.03 1.197C97.937 1.257 97.846 1.319 97.756 1.382C97.65 1.457 97.545 1.535 97.442 1.617C97.348 1.692 97.256 1.769 97.165 1.848C97.075 1.927 96.986 2.006 96.899 2.09C96.8 2.185 96.705 2.284 96.611 2.384C96.564 2.434 96.514 2.478 96.469 2.529C96.442 2.559 96.421 2.592 96.395 2.622C96.301 2.731 96.213 2.845 96.125 2.96C96.061 3.044 95.995 3.128 95.935 3.214C95.857 3.326 95.785 3.441 95.713 3.557C95.654 3.652 95.593 3.74599 95.539 3.84299C95.476 3.95499 95.421 4.07 95.364 4.185C95.312 4.29 95.258 4.395 95.211 4.502C95.162 4.615 95.119 4.732 95.076 4.847C95.033 4.96 94.989 5.072 94.952 5.186C94.915 5.301 94.885 5.418 94.853 5.535C94.821 5.655 94.787 5.774 94.76 5.895C94.735 6.008 94.718 6.123 94.698 6.237C94.676 6.367 94.654 6.497 94.638 6.627C94.625 6.735 94.619 6.84499 94.611 6.95499C94.601 7.09499 94.592 7.235 94.59 7.376C94.589 7.417 94.584 7.457 94.584 7.498V53.75C94.584 57.893 97.941 61.25 102.084 61.25C106.227 61.25 109.584 57.893 109.584 53.75V24.155L176.265 83.192C175.917 83.437 175.582 83.708 175.27 84.019L109.583 149.706V100.418C109.583 96.275 106.226 92.918 102.083 92.918C97.94 92.918 94.583 96.275 94.583 100.418V109.582H55.833C51.69 109.582 48.333 112.939 48.333 117.082C48.333 121.225 51.69 124.582 55.833 124.582H94.583V167.813C94.583 171.956 97.94 175.313 102.083 175.313H338.333C338.58 175.313 338.827 175.3 339.073 175.276C339.188 175.265 339.299 175.243 339.412 175.227C339.542 175.209 339.67 175.194 339.798 175.169ZM330.834 149.707L265.146 84.02C265.104 83.978 265.059 83.943 265.016 83.903L314.399 42.006C317.557 39.326 317.945 34.594 315.265 31.435C312.587 28.278 307.855 27.888 304.694 30.569L220.313 102.159L121.869 15.001H330.834V149.707V149.707ZM185.878 94.628C186.413 94.093 186.847 93.497 187.186 92.863L215.237 117.698C216.655 118.953 218.431 119.583 220.209 119.583C221.935 119.583 223.66 118.99 225.062 117.802L253.649 93.548C253.909 93.928 254.202 94.291 254.539 94.628L320.226 160.315H120.191L185.878 94.628Z" fill="white"/>
<path d="M7.5 85.416H134.167C138.31 85.416 141.667 82.059 141.667 77.916C141.667 73.773 138.31 70.416 134.167 70.416H7.5C3.357 70.416 0 73.773 0 77.916C0 82.059 3.357 85.416 7.5 85.416Z" fill="white"/>
<path d="M20.625 44.085H77.5C81.643 44.085 85 40.728 85 36.585C85 32.442 81.643 29.085 77.5 29.085H20.625C16.482 29.085 13.125 32.442 13.125 36.585C13.125 40.728 16.482 44.085 20.625 44.085Z" fill="white"/>
<path d="M62.5 141.25H7.5C3.357 141.25 0 144.607 0 148.75C0 152.893 3.357 156.25 7.5 156.25H62.5C66.643 156.25 70 152.893 70 148.75C70 144.607 66.643 141.25 62.5 141.25Z" fill="white"/>
</svg>
