<svg width="80" height="74" viewBox="0 0 123 74" fill="none"
	xmlns="http://www.w3.org/2000/svg">
	<path d="M36.3252 12.5264C37.1393 12.5264 37.5464 12.9533 37.5464 13.8071C37.5464 14.244 37.4074 14.7503 37.1294 15.3262C36.8713 15.8822 36.6628 16.3389 36.5039 16.6963L20.3306 56.6382L0.731934 12.854H16.9946L26.4663 35.1333L33.1084 18.5132C33.8232 16.7261 34.2899 15.4354 34.5083 14.6411C34.7267 13.8468 34.965 13.3008 35.2231 13.0029C35.4813 12.6852 35.8486 12.5264 36.3252 12.5264Z" fill="white"/>
	<line x1="45.5" y1="10" x2="45.5" y2="58" stroke="white" stroke-width="3"/>
	<path d="M65.628 17.526C65.172 18.846 64.734 20.07 64.314 21.198C63.906 22.314 63.504 23.376 63.108 24.384C62.712 25.392 62.316 26.358 61.92 27.282C61.536 28.194 61.14 29.1 60.732 30H59.094C58.686 29.1 58.284 28.194 57.888 27.282C57.504 26.358 57.108 25.392 56.7 24.384C56.304 23.376 55.896 22.314 55.476 21.198C55.056 20.07 54.624 18.846 54.18 17.526H56.106C56.754 19.422 57.39 21.246 58.014 22.998C58.638 24.75 59.28 26.394 59.94 27.93C60.6 26.406 61.242 24.768 61.866 23.016C62.49 21.252 63.12 19.422 63.756 17.526H65.628ZM67.3605 30V17.526H74.9745V19.02H69.1065V22.728H74.3265V24.186H69.1065V28.506H75.4245V30H67.3605ZM82.4979 30.27C81.6219 30.27 80.8239 30.126 80.1039 29.838C79.3839 29.55 78.7659 29.13 78.2499 28.578C77.7339 28.026 77.3319 27.348 77.0439 26.544C76.7679 25.728 76.6299 24.798 76.6299 23.754C76.6299 22.71 76.7859 21.786 77.0979 20.982C77.4219 20.166 77.8539 19.482 78.3939 18.93C78.9339 18.378 79.5639 17.958 80.2839 17.67C81.0039 17.382 81.7719 17.238 82.5879 17.238C83.1039 17.238 83.5659 17.274 83.9739 17.346C84.3939 17.418 84.7539 17.502 85.0539 17.598C85.3659 17.694 85.6179 17.79 85.8099 17.886C86.0019 17.982 86.1339 18.054 86.2059 18.102L85.7019 19.542C85.5939 19.47 85.4379 19.392 85.2339 19.308C85.0299 19.224 84.7959 19.14 84.5319 19.056C84.2799 18.972 83.9979 18.906 83.6859 18.858C83.3859 18.798 83.0799 18.768 82.7679 18.768C82.1079 18.768 81.5139 18.882 80.9859 19.11C80.4579 19.338 80.0079 19.668 79.6359 20.1C79.2639 20.532 78.9759 21.06 78.7719 21.684C78.5799 22.296 78.4839 22.986 78.4839 23.754C78.4839 24.498 78.5679 25.176 78.7359 25.788C78.9159 26.4 79.1799 26.928 79.5279 27.372C79.8759 27.804 80.3079 28.14 80.8239 28.38C81.3519 28.62 81.9639 28.74 82.6599 28.74C83.4639 28.74 84.1299 28.656 84.6579 28.488C85.1859 28.32 85.5819 28.17 85.8459 28.038L86.2959 29.478C86.2119 29.538 86.0619 29.616 85.8459 29.712C85.6299 29.796 85.3599 29.88 85.0359 29.964C84.7119 30.048 84.3339 30.12 83.9019 30.18C83.4699 30.24 83.0019 30.27 82.4979 30.27ZM96.9289 17.526V19.038H93.0049V30H91.2589V19.038H87.3349V17.526H96.9289ZM97.7764 23.754C97.7764 22.686 97.9324 21.744 98.2444 20.928C98.5684 20.112 99.0004 19.434 99.5404 18.894C100.092 18.342 100.728 17.928 101.448 17.652C102.18 17.376 102.954 17.238 103.77 17.238C104.574 17.238 105.33 17.376 106.038 17.652C106.758 17.928 107.388 18.342 107.928 18.894C108.468 19.434 108.894 20.112 109.206 20.928C109.53 21.744 109.692 22.686 109.692 23.754C109.692 24.822 109.53 25.764 109.206 26.58C108.894 27.396 108.468 28.08 107.928 28.632C107.388 29.172 106.758 29.58 106.038 29.856C105.33 30.132 104.574 30.27 103.77 30.27C102.954 30.27 102.18 30.132 101.448 29.856C100.728 29.58 100.092 29.172 99.5404 28.632C99.0004 28.08 98.5684 27.396 98.2444 26.58C97.9324 25.764 97.7764 24.822 97.7764 23.754ZM99.6124 23.754C99.6124 24.51 99.7084 25.2 99.9004 25.824C100.092 26.436 100.362 26.958 100.71 27.39C101.07 27.822 101.502 28.158 102.006 28.398C102.522 28.626 103.098 28.74 103.734 28.74C104.37 28.74 104.94 28.626 105.444 28.398C105.948 28.158 106.374 27.822 106.722 27.39C107.082 26.958 107.358 26.436 107.55 25.824C107.742 25.2 107.838 24.51 107.838 23.754C107.838 22.998 107.742 22.314 107.55 21.702C107.358 21.078 107.082 20.55 106.722 20.118C106.374 19.686 105.948 19.356 105.444 19.128C104.94 18.888 104.37 18.768 103.734 18.768C103.098 18.768 102.522 18.888 102.006 19.128C101.502 19.356 101.07 19.686 100.71 20.118C100.362 20.55 100.092 21.078 99.9004 21.702C99.7084 22.314 99.6124 22.998 99.6124 23.754ZM118.392 24.78C118.584 25.02 118.824 25.338 119.112 25.734C119.412 26.118 119.718 26.55 120.03 27.03C120.342 27.498 120.648 27.99 120.948 28.506C121.26 29.022 121.524 29.52 121.74 30H119.832C119.592 29.544 119.328 29.082 119.04 28.614C118.764 28.146 118.482 27.702 118.194 27.282C117.906 26.85 117.618 26.448 117.33 26.076C117.054 25.704 116.802 25.38 116.574 25.104C116.418 25.116 116.256 25.122 116.088 25.122C115.932 25.122 115.77 25.122 115.602 25.122H114.036V30H112.29V17.706C112.782 17.586 113.328 17.508 113.928 17.472C114.54 17.424 115.098 17.4 115.602 17.4C117.354 17.4 118.686 17.73 119.598 18.39C120.522 19.05 120.984 20.034 120.984 21.342C120.984 22.17 120.762 22.878 120.318 23.466C119.886 24.054 119.244 24.492 118.392 24.78ZM115.746 18.93C115.002 18.93 114.432 18.948 114.036 18.984V23.682H115.278C115.878 23.682 116.418 23.652 116.898 23.592C117.378 23.532 117.78 23.418 118.104 23.25C118.44 23.082 118.698 22.848 118.878 22.548C119.058 22.236 119.148 21.828 119.148 21.324C119.148 20.856 119.058 20.466 118.878 20.154C118.698 19.842 118.452 19.596 118.14 19.416C117.84 19.236 117.48 19.11 117.06 19.038C116.652 18.966 116.214 18.93 115.746 18.93ZM63.162 44.862H64.908V50.694C64.764 50.742 64.554 50.796 64.278 50.856C64.014 50.916 63.702 50.976 63.342 51.036C62.994 51.096 62.61 51.144 62.19 51.18C61.77 51.228 61.344 51.252 60.912 51.252C60.036 51.252 59.238 51.108 58.518 50.82C57.798 50.532 57.18 50.112 56.664 49.56C56.148 49.008 55.746 48.33 55.458 47.526C55.182 46.722 55.044 45.798 55.044 44.754C55.044 43.71 55.2 42.786 55.512 41.982C55.836 41.166 56.268 40.482 56.808 39.93C57.348 39.378 57.978 38.958 58.698 38.67C59.43 38.382 60.21 38.238 61.038 38.238C61.602 38.238 62.1 38.274 62.532 38.346C62.976 38.418 63.354 38.502 63.666 38.598C63.978 38.694 64.23 38.79 64.422 38.886C64.626 38.982 64.764 39.054 64.836 39.102L64.278 40.56C63.93 40.332 63.468 40.146 62.892 40.002C62.316 39.846 61.728 39.768 61.128 39.768C60.492 39.768 59.91 39.882 59.382 40.11C58.866 40.338 58.422 40.668 58.05 41.1C57.69 41.532 57.408 42.06 57.204 42.684C57 43.296 56.898 43.986 56.898 44.754C56.898 45.498 56.982 46.176 57.15 46.788C57.33 47.4 57.594 47.928 57.942 48.372C58.302 48.804 58.74 49.14 59.256 49.38C59.784 49.62 60.402 49.74 61.11 49.74C61.614 49.74 62.04 49.716 62.388 49.668C62.748 49.608 63.006 49.554 63.162 49.506V44.862ZM73.7438 45.78C73.9358 46.02 74.1758 46.338 74.4638 46.734C74.7638 47.118 75.0698 47.55 75.3818 48.03C75.6938 48.498 75.9998 48.99 76.2998 49.506C76.6118 50.022 76.8758 50.52 77.0918 51H75.1837C74.9438 50.544 74.6798 50.082 74.3918 49.614C74.1158 49.146 73.8338 48.702 73.5458 48.282C73.2578 47.85 72.9698 47.448 72.6818 47.076C72.4058 46.704 72.1538 46.38 71.9258 46.104C71.7698 46.116 71.6078 46.122 71.4398 46.122C71.2838 46.122 71.1218 46.122 70.9538 46.122H69.3878V51H67.6418V38.706C68.1338 38.586 68.6798 38.508 69.2798 38.472C69.8918 38.424 70.4498 38.4 70.9538 38.4C72.7058 38.4 74.0378 38.73 74.9498 39.39C75.8738 40.05 76.3358 41.034 76.3358 42.342C76.3358 43.17 76.1138 43.878 75.6698 44.466C75.2378 45.054 74.5958 45.492 73.7438 45.78ZM71.0978 39.93C70.3538 39.93 69.7838 39.948 69.3878 39.984V44.682H70.6298C71.2298 44.682 71.7698 44.652 72.2498 44.592C72.7298 44.532 73.1318 44.418 73.4558 44.25C73.7918 44.082 74.0498 43.848 74.2298 43.548C74.4098 43.236 74.4998 42.828 74.4998 42.324C74.4998 41.856 74.4098 41.466 74.2298 41.154C74.0498 40.842 73.8038 40.596 73.4918 40.416C73.1918 40.236 72.8318 40.11 72.4118 40.038C72.0038 39.966 71.5658 39.93 71.0978 39.93ZM78.2647 44.754C78.2647 43.686 78.4207 42.744 78.7327 41.928C79.0567 41.112 79.4887 40.434 80.0287 39.894C80.5807 39.342 81.2167 38.928 81.9367 38.652C82.6687 38.376 83.4427 38.238 84.2587 38.238C85.0627 38.238 85.8187 38.376 86.5267 38.652C87.2467 38.928 87.8767 39.342 88.4167 39.894C88.9567 40.434 89.3827 41.112 89.6947 41.928C90.0187 42.744 90.1807 43.686 90.1807 44.754C90.1807 45.822 90.0187 46.764 89.6947 47.58C89.3827 48.396 88.9567 49.08 88.4167 49.632C87.8767 50.172 87.2467 50.58 86.5267 50.856C85.8187 51.132 85.0627 51.27 84.2587 51.27C83.4427 51.27 82.6687 51.132 81.9367 50.856C81.2167 50.58 80.5807 50.172 80.0287 49.632C79.4887 49.08 79.0567 48.396 78.7327 47.58C78.4207 46.764 78.2647 45.822 78.2647 44.754ZM80.1007 44.754C80.1007 45.51 80.1967 46.2 80.3887 46.824C80.5807 47.436 80.8507 47.958 81.1987 48.39C81.5587 48.822 81.9907 49.158 82.4947 49.398C83.0107 49.626 83.5867 49.74 84.2227 49.74C84.8587 49.74 85.4287 49.626 85.9327 49.398C86.4367 49.158 86.8627 48.822 87.2107 48.39C87.5707 47.958 87.8467 47.436 88.0387 46.824C88.2307 46.2 88.3267 45.51 88.3267 44.754C88.3267 43.998 88.2307 43.314 88.0387 42.702C87.8467 42.078 87.5707 41.55 87.2107 41.118C86.8627 40.686 86.4367 40.356 85.9327 40.128C85.4287 39.888 84.8587 39.768 84.2227 39.768C83.5867 39.768 83.0107 39.888 82.4947 40.128C81.9907 40.356 81.5587 40.686 81.1987 41.118C80.8507 41.55 80.5807 42.078 80.3887 42.702C80.1967 43.314 80.1007 43.998 80.1007 44.754ZM97.4225 51.27C96.6065 51.27 95.8985 51.144 95.2985 50.892C94.6985 50.64 94.2065 50.298 93.8225 49.866C93.4385 49.422 93.1505 48.9 92.9585 48.3C92.7785 47.7 92.6885 47.052 92.6885 46.356V38.526H94.4345V46.158C94.4345 47.406 94.7105 48.312 95.2625 48.876C95.8145 49.44 96.5345 49.722 97.4225 49.722C97.8665 49.722 98.2685 49.656 98.6285 49.524C99.0005 49.38 99.3185 49.164 99.5825 48.876C99.8465 48.588 100.05 48.222 100.194 47.778C100.338 47.322 100.41 46.782 100.41 46.158V38.526H102.156V46.356C102.156 47.052 102.06 47.7 101.868 48.3C101.688 48.9 101.4 49.422 101.004 49.866C100.62 50.298 100.128 50.64 99.5285 50.892C98.9405 51.144 98.2385 51.27 97.4225 51.27ZM108.483 38.4C110.235 38.4 111.579 38.736 112.515 39.408C113.463 40.068 113.937 41.058 113.937 42.378C113.937 43.098 113.805 43.716 113.541 44.232C113.289 44.736 112.917 45.15 112.425 45.474C111.945 45.786 111.357 46.014 110.661 46.158C109.965 46.302 109.179 46.374 108.303 46.374H106.917V51H105.171V38.706C105.663 38.586 106.209 38.508 106.809 38.472C107.421 38.424 107.979 38.4 108.483 38.4ZM108.627 39.93C107.883 39.93 107.313 39.948 106.917 39.984V44.88H108.231C108.831 44.88 109.371 44.844 109.851 44.772C110.331 44.688 110.733 44.556 111.057 44.376C111.393 44.184 111.651 43.926 111.831 43.602C112.011 43.278 112.101 42.864 112.101 42.36C112.101 41.88 112.005 41.484 111.813 41.172C111.633 40.86 111.381 40.614 111.057 40.434C110.745 40.242 110.379 40.11 109.959 40.038C109.539 39.966 109.095 39.93 108.627 39.93Z" fill="white"/>
</svg>
