<svg width="80" height="80" viewBox="0 0 80 80" fill="none" xmlns="http://www.w3.org/2000/svg">
<g clip-path="url(#clip0)">
<path d="M40.2582 80C61.8637 80 79.4414 62.0561 79.4414 40C79.4414 17.9439 61.8637 0 40.2582 0C18.6527 0 1.07495 17.9439 1.07495 40C1.07495 52.0249 6.303 63.3011 15.4186 70.9368C16.3797 71.7417 17.7981 71.5995 18.587 70.6177C19.3758 69.6367 19.2358 68.1885 18.2748 67.3836C10.2053 60.6243 5.57722 50.6433 5.57722 39.9997C5.57722 20.4779 21.1349 4.59582 40.2582 4.59582C59.3814 4.59582 74.9391 20.4781 74.9391 40C74.9391 59.5219 59.3814 75.4039 40.2582 75.4039C39.0146 75.4039 38.007 76.4328 38.007 77.702C38.007 78.9711 39.0146 80 40.2582 80Z" fill="#4277FF"/>
<path d="M40.2577 23.9521C40.8212 23.9521 41.2781 23.4856 41.2781 22.9104V17.6041C41.2781 17.0289 40.8213 16.5625 40.2577 16.5625C39.6942 16.5625 39.2373 17.0288 39.2373 17.6041V22.9104C39.2374 23.4856 39.6942 23.9521 40.2577 23.9521Z" fill="#4277FF"/>
<path d="M32.5864 25.6649C32.7805 25.9792 33.1118 26.1513 33.4507 26.1513C33.6366 26.1513 33.8248 26.0995 33.9937 25.9908C34.4704 25.6841 34.6132 25.0409 34.3129 24.5541L31.5941 20.1504C31.2936 19.6637 30.6635 19.5179 30.187 19.8247C29.7101 20.1313 29.5673 20.7745 29.8677 21.2613L32.5864 25.6649Z" fill="#4277FF"/>
<path d="M46.5259 25.9883C46.6948 26.0967 46.8829 26.1486 47.0685 26.1486C47.4076 26.1486 47.7391 25.9762 47.933 25.6618L50.649 21.258C50.9492 20.7712 50.8059 20.1282 50.3291 19.8215C49.8519 19.5152 49.2222 19.6614 48.9219 20.148L46.206 24.5518C45.9059 25.0387 46.0491 25.6818 46.5259 25.9883Z" fill="#4277FF"/>
<path d="M66.0517 41.0865L64.2787 37.8891C64.001 37.3883 63.3783 37.2122 62.8882 37.4958C62.3977 37.7793 62.2252 38.4147 62.5028 38.9153L64.275 42.1113C64.3638 42.2719 64.3407 42.4269 64.3191 42.5049C64.2983 42.5799 64.241 42.7186 64.0909 42.8031L61.3586 44.3483C61.1158 44.4851 60.799 44.3987 60.6666 44.1603L59.9724 42.9069C59.9695 42.9013 59.9663 42.8961 59.9633 42.8905L52.7869 29.9327C52.6983 29.7733 52.7206 29.6203 52.7419 29.5434C52.7624 29.4689 52.8193 29.3313 52.9694 29.2466L55.705 27.7013C55.9508 27.5622 56.2599 27.6466 56.3943 27.8898L57.9936 30.7745C58.2713 31.2751 58.8941 31.4511 59.3842 31.1679C59.8748 30.8846 60.0472 30.2489 59.7696 29.7483L58.171 26.8649C57.4891 25.6309 55.94 25.1883 54.7173 25.8782L51.9818 27.4237C51.3898 27.7575 50.9623 28.3095 50.7778 28.9782C50.6037 29.6086 50.6659 30.2667 50.9508 30.8443L49.4439 31.2902C48.802 31.4798 48.4124 31.5826 48.1962 31.5826C48.1953 31.5826 48.1945 31.5826 48.1936 31.5826C48.0448 31.5821 47.8824 31.5241 47.4192 31.3449C47.2089 31.2637 46.9471 31.1623 46.6254 31.0478L43.9555 30.095C42.479 29.5685 41.8129 29.5969 40.8481 29.6867L36.2955 30.1027C34.22 30.2903 32.8969 30.7683 32.1665 31.5971L29.572 30.8298C29.8513 30.2546 29.9111 29.6029 29.7386 28.9782C29.5541 28.3099 29.1268 27.7581 28.5355 27.4241L25.8015 25.8779C24.5779 25.1874 23.0278 25.6303 22.3458 26.8639L14.4679 41.085C14.1306 41.6913 14.0472 42.3962 14.2331 43.0703C14.4179 43.7397 14.8454 44.2922 15.4362 44.6257L18.1703 46.1717C18.5611 46.3922 18.9859 46.497 19.4049 46.497C20.2952 46.497 21.1607 46.0242 21.6259 45.1858L21.9148 44.6641C22.7031 45.0183 23.3651 45.5331 23.8162 46.1425C23.3756 46.6681 23.098 47.3167 23.0202 48.0222C22.9173 48.9553 23.1755 49.8707 23.7471 50.6003C24.3139 51.3238 25.1243 51.7803 26.0305 51.8878C25.9346 52.8129 26.1938 53.7194 26.761 54.4409C27.3473 55.1893 28.176 55.6258 29.0428 55.7289C28.9473 56.6526 29.2056 57.5582 29.771 58.2802C30.3375 59.0051 31.148 59.4626 32.0552 59.5701C31.9592 60.4959 32.2184 61.4029 32.7856 62.1246C33.4617 62.9874 34.4598 63.4367 35.4675 63.4366C36.2198 63.4366 36.9772 63.1862 37.6098 62.6706L39.7463 60.9254C39.9159 60.7871 40.0701 60.6343 40.2087 60.4698L41.4292 61.465C42.0603 61.9791 42.8161 62.2289 43.5673 62.2289C44.5755 62.2287 45.5752 61.7789 46.2523 60.9151C46.6091 60.4598 46.835 59.9399 46.937 59.4034C47.2939 59.5294 47.6706 59.5946 48.0547 59.5945C48.1835 59.5945 48.3131 59.5871 48.443 59.5725C49.3573 59.4689 50.1748 59.0098 50.743 58.2826C51.3112 57.5598 51.5704 56.6535 51.4745 55.7285C52.3408 55.6253 53.1699 55.1889 53.7579 54.4407C54.3436 53.6931 54.5786 52.7727 54.4867 51.8875C55.3924 51.7798 56.2024 51.3235 56.7677 50.6018C57.3398 49.8741 57.5991 48.9599 57.4978 48.0277C57.4208 47.3199 57.1431 46.6691 56.7017 46.1421C57.1515 45.5329 57.812 45.0175 58.6009 44.6635L58.8904 45.1862C59.3553 46.0243 60.2204 46.497 61.1108 46.497C61.5301 46.4969 61.9553 46.3921 62.3465 46.1713L65.0791 44.6261C65.6697 44.2927 66.097 43.741 66.2824 43.0727C66.4694 42.3994 66.3877 41.6943 66.0517 41.0865ZM19.8498 44.1598C19.7172 44.399 19.4001 44.4853 19.1585 44.3487L16.4245 42.8029C16.2751 42.7185 16.2183 42.5803 16.1974 42.5055C16.1761 42.4279 16.1534 42.2738 16.2433 42.1123L24.1224 27.8883C24.2127 27.7251 24.3826 27.6337 24.5591 27.6337C24.6451 27.6337 24.7324 27.6553 24.8131 27.7007L27.5463 29.2465C27.5465 29.2466 27.5469 29.2469 27.5471 29.247C27.6967 29.3314 27.7536 29.469 27.7742 29.5435C27.7954 29.6205 27.8179 29.7734 27.7282 29.9346L19.8498 44.1598ZM27.2961 49.5203C27.0084 49.7555 26.6449 49.8619 26.2736 49.8198C25.9021 49.7777 25.571 49.5929 25.3409 49.2994C25.1104 49.005 25.0066 48.6342 25.0484 48.2553C25.0899 47.8779 25.271 47.5415 25.5601 47.3066L29.3803 44.1894C29.9799 43.7007 30.8575 43.8013 31.3367 44.4122C31.5671 44.7062 31.6711 45.0765 31.6294 45.4542C31.588 45.8307 31.4068 46.1669 31.1192 46.4003C31.113 46.4055 31.1075 46.4113 31.1014 46.4165L27.297 49.5195C27.2966 49.5198 27.2964 49.5201 27.2961 49.5203ZM28.3536 53.1383C28.1233 52.8454 28.0191 52.4761 28.0603 52.0986C28.1014 51.7207 28.2828 51.3829 28.5708 51.1471L28.571 51.147C28.5713 51.1469 28.5714 51.1466 28.5717 51.1465C28.5718 51.1465 28.5718 51.1465 28.5719 51.1463L34.0744 46.6583C34.6739 46.1697 35.5517 46.2694 36.0308 46.8813C36.2609 47.1749 36.3649 47.5446 36.3238 47.9223C36.2826 48.3005 36.1008 48.6383 35.812 48.8738L30.311 53.3601C29.7107 53.849 28.8331 53.7503 28.3536 53.1383ZM32.2983 57.5019C31.9268 57.4598 31.596 57.2749 31.3657 56.9801C31.1356 56.6865 31.0316 56.3166 31.0727 55.9389C31.114 55.5611 31.2955 55.2235 31.5837 54.9881C31.584 54.9879 31.5842 54.9877 31.5845 54.9874L35.3924 51.8821C35.3969 51.8785 35.4018 51.8755 35.4063 51.8718C36.0042 51.3831 36.8818 51.4827 37.3614 52.0929C37.5918 52.387 37.6958 52.7579 37.6541 53.1369C37.6124 53.5142 37.4313 53.8506 37.1423 54.0855L33.3223 57.2027C33.0335 57.4379 32.6698 57.5438 32.2983 57.5019ZM38.9837 58.3475C38.9423 58.7254 38.761 59.0626 38.4722 59.2979L36.3356 61.0435C35.7353 61.5326 34.8578 61.4341 34.3784 60.8221C34.1482 60.5293 34.0439 60.1597 34.0851 59.7814C34.1262 59.4031 34.3073 59.0658 34.5948 58.8314C34.595 58.8313 34.5954 58.8309 34.5958 58.8307L36.7319 57.0875C36.7329 57.0866 36.7342 57.0859 36.7353 57.0851C37.335 56.5965 38.2127 56.6966 38.6918 57.3079C38.9214 57.601 39.0251 57.9701 38.9837 58.3475ZM55.1751 49.2993C54.9451 49.5927 54.6139 49.7777 54.2425 49.8198C53.8713 49.8623 53.5078 49.7557 53.22 49.5203C53.2199 49.5202 53.2198 49.5201 53.2195 49.5199C53.2194 49.5198 53.2193 49.5198 53.2191 49.5197L50.4887 47.2927C50.0484 46.9335 49.4063 47.0069 49.0547 47.4562C48.703 47.9055 48.7747 48.5611 49.2148 48.9202L51.9444 51.1465C52.5431 51.6359 52.6418 52.5301 52.1653 53.1383C51.6844 53.7499 50.8068 53.8494 50.2076 53.3595L47.2459 50.9469C46.8056 50.5881 46.1635 50.6618 45.8119 51.1113C45.4605 51.5609 45.5325 52.2163 45.9731 52.5751L48.9333 54.9867C49.2218 55.2226 49.4034 55.5607 49.4445 55.9389C49.4857 56.3165 49.3816 56.6858 49.1494 56.9811C48.9198 57.2749 48.5891 57.4598 48.2178 57.5019C47.8461 57.5437 47.4823 57.4378 47.1946 57.2035L45.721 56.0003C45.7184 55.9983 45.7163 55.9961 45.7138 55.9941L44.4687 54.9779L44.2359 54.7879C43.7955 54.4285 43.1535 54.5015 42.8018 54.9507C42.7577 55.007 42.7202 55.0663 42.6895 55.1279C42.5417 55.4227 42.5441 55.7685 42.6828 56.0583C42.747 56.1927 42.8395 56.3153 42.9612 56.4147L44.443 57.6245C45.0378 58.1147 45.1351 59.0059 44.6588 59.6137C44.1795 60.2253 43.3018 60.3251 42.7025 59.8371L41.0214 58.4661C41.0914 57.5746 40.8326 56.705 40.2853 56.0065C39.9451 55.5723 39.5231 55.2437 39.0598 55.0231C39.3993 54.5422 39.615 53.9771 39.6819 53.3697C39.7847 52.4367 39.5266 51.5213 38.954 50.7903C38.6137 50.3574 38.1922 50.0294 37.7298 49.8094C38.0701 49.327 38.2856 48.7609 38.352 48.1526C38.4534 47.2217 38.1951 46.3081 37.6245 45.5797C36.6426 44.3265 34.9823 43.9455 33.6004 44.5443C33.4898 44.0258 33.2637 43.5366 32.93 43.1107C31.7487 41.6037 29.5852 41.357 28.1065 42.5614L25.3743 44.7909C24.7565 43.9861 23.9165 43.3185 22.9235 42.8425L28.5438 32.6945L31.5362 33.5795C31.5499 33.743 31.5758 33.9149 31.6191 34.097C32.3436 37.1374 35.0858 38.5541 38.7758 37.795C41.8849 37.1563 43.1649 38.1077 45.7143 40.0027C45.9786 40.1994 46.2534 40.4037 46.5412 40.6139C48.3744 41.9566 50.3337 43.5349 51.6472 44.6046L54.9595 47.3069C55.2472 47.5413 55.4283 47.8787 55.4694 48.2573C55.5106 48.6355 55.4065 49.005 55.1751 49.2993ZM55.1433 44.7903L52.9206 42.9769C51.5889 41.8923 49.6021 40.2921 47.7303 38.921C47.4466 38.7137 47.176 38.5125 46.9157 38.3189C44.2722 36.3538 42.3618 34.9341 38.3732 35.7529C37.1524 36.0041 34.2438 36.2977 33.6023 33.6051C33.5118 33.225 33.6038 33.0945 33.6428 33.0387C33.7793 32.8446 34.3282 32.3719 36.476 32.1778L41.0335 31.7614C41.7761 31.6922 42.1487 31.6574 43.2821 32.0617L45.9522 33.0146C46.2491 33.1203 46.4865 33.2121 46.696 33.2931C47.9817 33.7903 48.3224 33.7902 50.0114 33.2911L51.9799 32.7089L57.5926 42.8431C56.5993 43.3189 55.7602 43.9858 55.1433 44.7903Z" fill="#4277FF"/>
<path d="M61.1331 35.374C61.6967 35.374 62.1536 34.906 62.1536 34.3307C62.1536 33.7555 61.6967 33.2891 61.1331 33.2891C60.5697 33.2891 60.1128 33.7555 60.1128 34.3307V34.3336C60.1128 34.9089 60.5697 35.374 61.1331 35.374Z" fill="#4277FF"/>
</g>
<defs>
<clipPath id="clip0">
<rect width="80" height="80" rx="10" fill="white"/>
</clipPath>
</defs>
</svg>
