<svg width="25" height="25" viewBox="0 0 25 25" fill="none" xmlns="http://www.w3.org/2000/svg">
<path d="M18.2327 0H6.76725C3.03573 0 0 3.03573 0 6.76725V18.2329C0 21.9643 3.03573 24.9999 6.76725 24.9999H18.2329C21.9643 24.9999 24.9999 21.9643 24.9999 18.2329V6.76725C24.9999 3.03573 21.9643 0 18.2327 0ZM23.5344 18.2329C23.5344 21.1561 21.1561 23.5344 18.2327 23.5344H6.76725C3.84387 23.5344 1.46561 21.1561 1.46561 18.2329V6.76725C1.46561 3.84387 3.84387 1.46561 6.76725 1.46561H18.2329C21.1561 1.46561 23.5344 3.84387 23.5344 6.76725V18.2329Z" fill="white"/>
<path d="M12.5002 5.66406C8.73087 5.66406 5.66443 8.7305 5.66443 12.4998C5.66443 16.2691 8.73087 19.3355 12.5002 19.3355C16.2694 19.3355 19.3359 16.2691 19.3359 12.4998C19.3359 8.7305 16.2694 5.66406 12.5002 5.66406ZM12.5002 17.8699C9.53919 17.8699 7.13006 15.4609 7.13006 12.4998C7.13006 9.53881 9.53919 7.12969 12.5002 7.12969C15.4613 7.12969 17.8703 9.53881 17.8703 12.4998C17.8703 15.4609 15.4613 17.8699 12.5002 17.8699Z" fill="white"/>
<path d="M19.4991 3.23657C18.3852 3.23657 17.4792 4.14275 17.4792 5.25645C17.4792 6.37032 18.3852 7.2765 19.4991 7.2765C20.613 7.2765 21.5192 6.37032 21.5192 5.25645C21.5192 4.14256 20.613 3.23657 19.4991 3.23657ZM19.4991 5.81072C19.1936 5.81072 18.9449 5.56201 18.9449 5.25645C18.9449 4.9507 19.1936 4.70218 19.4991 4.70218C19.8049 4.70218 20.0536 4.9507 20.0536 5.25645C20.0536 5.56201 19.8049 5.81072 19.4991 5.81072Z" fill="white"/>
</svg>
