<svg width="21" height="16" viewBox="0 0 21 16" fill="none" xmlns="http://www.w3.org/2000/svg">
<path d="M2.75295 4.84373C3.00594 5.02225 3.76857 5.55248 5.04086 6.43414C6.3132 7.3158 7.28789 7.99466 7.96499 8.47074C8.03938 8.52293 8.19742 8.63637 8.4392 8.81123C8.68102 8.9862 8.88195 9.12759 9.04183 9.23544C9.20183 9.34326 9.39525 9.4642 9.62229 9.59809C9.84925 9.73186 10.0632 9.83248 10.2641 9.89909C10.465 9.96625 10.651 9.99952 10.8221 9.99952H10.8333H10.8446C11.0157 9.99952 11.2018 9.96621 11.4027 9.89909C11.6035 9.83248 11.8176 9.73174 12.0444 9.59809C12.2713 9.46405 12.4647 9.34322 12.6247 9.23544C12.7847 9.12759 12.9855 8.9862 13.2274 8.81123C13.4691 8.63622 13.6274 8.52293 13.7017 8.47074C14.3862 7.99466 16.1274 6.78553 18.9249 4.84349C19.468 4.46419 19.9218 4.00651 20.2863 3.47077C20.6511 2.93526 20.8333 2.37349 20.8333 1.78575C20.8333 1.29462 20.6565 0.874192 20.303 0.524523C19.9496 0.174776 19.531 0 19.0476 0H2.61898C2.0461 0 1.60523 0.193422 1.29645 0.580267C0.987714 0.967189 0.833344 1.45082 0.833344 2.03113C0.833344 2.49987 1.03802 3.00782 1.44719 3.55466C1.85632 4.10154 2.29171 4.53127 2.75295 4.84373Z" fill="white"/>
<path d="M19.7171 6.03759C17.2769 7.68923 15.424 8.97282 14.1593 9.8881C13.7352 10.2005 13.3911 10.4443 13.1269 10.6191C12.8627 10.7939 12.5113 10.9725 12.0722 11.1547C11.6333 11.3372 11.2243 11.4281 10.8447 11.4281H10.8334H10.8221C10.4427 11.4281 10.0334 11.3372 9.59449 11.1547C9.15558 10.9725 8.80395 10.7939 8.53982 10.6191C8.27576 10.4443 7.9316 10.2005 7.50754 9.8881C6.50302 9.15154 4.6541 7.86787 1.96069 6.03759C1.53647 5.75504 1.16073 5.43117 0.833344 5.06665V13.928C0.833344 14.4194 1.00812 14.8396 1.35787 15.1893C1.70754 15.5391 2.128 15.7139 2.6191 15.7139H19.0477C19.5387 15.7139 19.9591 15.5391 20.3088 15.1893C20.6586 14.8394 20.8333 14.4194 20.8333 13.928V5.06665C20.5133 5.42363 20.1414 5.7475 19.7171 6.03759Z" fill="white"/>
</svg>
