<svg width="80" height="80" viewBox="0 0 80 80" fill="none" xmlns="http://www.w3.org/2000/svg">
<g clip-path="url(#clip0)">
<path d="M59.0189 39.8693H58.5597V34.2443V29.2443C58.5597 27.5829 57.2829 26.2207 55.6784 26.1252L54.8923 22.8099C54.6542 21.8063 53.6606 21.1873 52.6777 21.4304L33.6163 26.1412C33.5657 26.1273 33.5127 26.1193 33.4578 26.1193H23.662C21.9742 26.1193 20.6008 27.5212 20.6008 29.2443V55.4943C20.6008 57.2175 21.9742 58.6193 23.662 58.6193H55.4985C57.1864 58.6193 58.5597 57.2175 58.5597 55.4943V49.8693H59.0189C59.4408 49.8693 59.7841 49.5188 59.7841 49.088V40.6505C59.7841 40.2197 59.4408 39.8693 59.0189 39.8693ZM57.3352 29.2443V29.2456C57.0281 29.0097 56.6763 28.832 56.2954 28.7271L55.9898 27.438C56.7646 27.6579 57.3352 28.3841 57.3352 29.2443ZM23.662 27.3693H28.6469L23.54 28.6313C23.5368 28.632 23.5338 28.6331 23.5306 28.6337L23.5179 28.6368C23.5164 28.6372 23.5147 28.6379 23.5132 28.6384C23.4956 28.6428 23.4783 28.648 23.4613 28.654C23.4582 28.6551 23.4553 28.6563 23.4524 28.6573C23.4366 28.6632 23.4213 28.6695 23.4062 28.6767C23.4018 28.6787 23.3978 28.6808 23.3936 28.6828C23.3803 28.6895 23.3672 28.6965 23.3545 28.704C23.3491 28.7072 23.3439 28.7104 23.3387 28.7139C23.3274 28.7211 23.3164 28.7285 23.3056 28.7364C23.2999 28.7407 23.2943 28.7449 23.2887 28.7493C23.2788 28.7571 23.2691 28.7652 23.2596 28.7736C23.2542 28.7785 23.2488 28.7835 23.2435 28.7885C23.2345 28.7973 23.2256 28.8063 23.2171 28.8155C23.2123 28.8207 23.2076 28.8259 23.203 28.8313C23.1945 28.8412 23.1862 28.8513 23.1784 28.8617C23.1743 28.8668 23.1705 28.8721 23.1668 28.8775C23.1589 28.8885 23.1514 28.8999 23.1442 28.9113C23.141 28.9165 23.138 28.9217 23.1349 28.9271C23.1279 28.9391 23.1213 28.9512 23.1152 28.9636C23.1126 28.9693 23.1099 28.9749 23.1074 28.9805C23.1018 28.9928 23.0966 29.0052 23.0917 29.0177C23.0892 29.0244 23.0868 29.0312 23.0845 29.0379C23.0806 29.0496 23.0768 29.0613 23.0735 29.0735C23.0711 29.082 23.069 29.0905 23.067 29.0991C23.0646 29.1096 23.0623 29.12 23.0604 29.1307C23.0584 29.1415 23.0568 29.1524 23.0554 29.1633C23.0543 29.1721 23.0531 29.1811 23.0524 29.19C23.0514 29.2027 23.0509 29.2155 23.0505 29.2283C23.0504 29.2335 23.0497 29.2385 23.0497 29.2437C23.0497 29.2467 23.0501 29.2495 23.0502 29.2525C23.0504 29.2649 23.0511 29.2773 23.052 29.2899C23.0528 29.2991 23.0534 29.3081 23.0543 29.3172C23.0556 29.3276 23.0572 29.338 23.059 29.3485C23.0609 29.3595 23.0627 29.3704 23.0651 29.3812C23.0658 29.3845 23.0661 29.3879 23.0669 29.3912C23.0684 29.3972 23.0704 29.4028 23.0719 29.4087C23.0749 29.4197 23.0779 29.4307 23.0815 29.4413C23.0846 29.4512 23.0882 29.4608 23.0919 29.4704C23.0953 29.4795 23.0987 29.4884 23.1027 29.4972C23.1075 29.5083 23.1127 29.5191 23.118 29.5297C23.1213 29.5364 23.1248 29.5431 23.1283 29.5496C23.1351 29.5617 23.142 29.5735 23.1494 29.5849C23.1524 29.5897 23.1555 29.5945 23.1587 29.5992C23.1671 29.6116 23.1759 29.6236 23.1852 29.6353C23.188 29.6389 23.1908 29.6425 23.1937 29.6459C23.2036 29.658 23.214 29.6696 23.2248 29.6808C23.2276 29.6839 23.2304 29.6868 23.2335 29.6897C23.2445 29.7008 23.2559 29.7113 23.2677 29.7216C23.2711 29.7243 23.2742 29.7271 23.2775 29.7297C23.2893 29.7395 23.3015 29.7489 23.3142 29.7577C23.3178 29.7604 23.3216 29.7629 23.3254 29.7655C23.338 29.774 23.3509 29.782 23.3641 29.7895C23.3681 29.7917 23.372 29.794 23.3761 29.7961C23.3897 29.8035 23.4035 29.8103 23.4177 29.8167C23.4215 29.8183 23.4252 29.82 23.429 29.8216C23.4441 29.828 23.4594 29.8336 23.475 29.8388C23.478 29.8397 23.481 29.8407 23.484 29.8416C23.501 29.8469 23.5183 29.8515 23.5358 29.8552C23.5375 29.8555 23.5391 29.856 23.5408 29.8563C23.5599 29.8603 23.5792 29.8633 23.5988 29.8653C23.5992 29.8653 23.5996 29.8655 23.5999 29.8655C23.6203 29.8676 23.6408 29.8688 23.6615 29.8688C23.6617 29.8688 23.6619 29.8688 23.662 29.8688H23.6636C23.6713 29.8688 23.6788 29.8691 23.6864 29.8688H52.4373C52.7753 29.8688 53.0495 29.5889 53.0495 29.2437C53.0495 28.8985 52.7753 28.6188 52.4373 28.6188H28.7945L52.9657 22.6453C53.2926 22.5643 53.6231 22.7703 53.7022 23.104L55.01 28.6189H54.8865C54.5484 28.6189 54.2742 28.8988 54.2742 29.2439C54.2742 29.5891 54.5484 29.8689 54.8865 29.8689H55.4985C55.5601 29.8689 55.621 29.8721 55.6811 29.8781C55.7047 29.8827 55.7288 29.8857 55.7532 29.8873C56.6458 30.0144 57.3352 30.7983 57.3352 31.7439V31.746C56.8232 31.3527 56.1871 31.1193 55.4985 31.1193H23.662C22.6493 31.1193 21.8253 30.2781 21.8253 29.2443C21.8253 28.2104 22.6493 27.3693 23.662 27.3693ZM57.3352 55.4943C57.3352 56.5281 56.5112 57.3693 55.4985 57.3693H23.662C22.6493 57.3693 21.8253 56.5281 21.8253 55.4943V31.7425C22.3373 32.1359 22.9734 32.3693 23.662 32.3693H55.4985C56.5112 32.3693 57.3352 33.2104 57.3352 34.2443V39.8693H48.3813C47.9171 39.8693 47.5394 40.2549 47.5394 40.7288V49.0097C47.5394 49.4836 47.9171 49.8693 48.3813 49.8693H57.3352V55.4943ZM58.5597 48.6193H48.7639V41.1193H57.9385C57.9415 41.1193 57.9444 41.1197 57.9474 41.1197C57.9504 41.1197 57.9533 41.1193 57.9563 41.1193H58.5597V48.6193Z" fill="#4277FF"/>
<path d="M53.6614 44.2448C53.3234 44.2448 53.0492 44.5246 53.0492 44.8697C53.0492 45.2144 52.7746 45.4948 52.437 45.4948C52.0994 45.4948 51.8247 45.2144 51.8247 44.8697C51.8247 44.5252 52.0994 44.2448 52.437 44.2448C52.7751 44.2448 53.0492 43.9649 53.0492 43.6197C53.0492 43.2746 52.7751 42.9948 52.437 42.9948C51.4242 42.9948 50.6003 43.836 50.6003 44.8697C50.6003 45.9036 51.4242 46.7448 52.437 46.7448C53.4497 46.7448 54.2737 45.9036 54.2737 44.8697C54.2737 44.5246 53.9996 44.2448 53.6614 44.2448Z" fill="#4277FF"/>
<path d="M40.1925 80C61.7979 80 79.3757 62.0561 79.3757 40C79.3757 17.9439 61.7979 0 40.1925 0C18.587 0 1.00928 17.9439 1.00928 40C1.00928 52.0249 6.23732 63.3011 15.3528 70.9368C16.314 71.7417 17.7325 71.5995 18.5214 70.6177C19.3101 69.6367 19.1702 68.1885 18.2091 67.3836C10.1396 60.6243 5.51154 50.6433 5.51154 39.9997C5.51154 20.4779 21.0693 4.59582 40.1925 4.59582C59.3158 4.59582 74.8735 20.4781 74.8735 40C74.8735 59.5219 59.3158 75.4039 40.1925 75.4039C38.9489 75.4039 37.9414 76.4328 37.9414 77.702C37.9414 78.9711 38.9489 80 40.1925 80Z" fill="#4277FF"/>
</g>
<defs>
<clipPath id="clip0">
<rect width="80" height="80" rx="10" fill="white"/>
</clipPath>
</defs>
</svg>
