<svg width="25" height="25" viewBox="0 0 25 25" fill="none" xmlns="http://www.w3.org/2000/svg">
<path d="M12.5 25C19.3927 25 25 19.3927 25 12.5C25 5.60729 19.3927 0 12.5 0C5.60729 0 0 5.60729 0 12.5C0 19.3927 5.60729 25 12.5 25ZM12.5 1.5625C18.5312 1.5625 23.4375 6.46875 23.4375 12.5C23.4375 18.5312 18.5312 23.4375 12.5 23.4375C6.46875 23.4375 1.5625 18.5312 1.5625 12.5C1.5625 6.46875 6.46875 1.5625 12.5 1.5625Z" fill="white"/>
<path d="M8.22494 14.7447L9.85831 14.0354L9.39994 14.4947C9.25306 14.6416 9.17081 14.8406 9.17081 15.0468V18.1041C9.17081 18.8041 10.0166 19.1437 10.5041 18.6562L12.1437 17.0166L15.7166 18.8031C16.1791 19.0343 16.7385 18.7604 16.8343 18.2437L18.8729 7.03431C18.9802 6.43118 18.3864 5.94367 17.8187 6.16659L4.57288 11.351C3.97913 11.5822 3.89996 12.3947 4.43746 12.7374L7.49369 14.6874C7.71244 14.827 7.9885 14.8489 8.22494 14.7447ZM17.0854 8.13325L15.4843 16.9406L12.3385 15.3687C12.0343 15.2166 11.6718 15.2801 11.4374 15.5156L10.7333 16.2197V15.3729L13.8656 12.2406C14.4729 11.6332 13.7896 10.6312 13.0021 10.9718L7.98431 13.1489L6.57394 12.2489L17.0854 8.13325Z" fill="white"/>
</svg>
