<svg width="25" height="25" viewBox="0 0 25 25" fill="none" xmlns="http://www.w3.org/2000/svg">
<path d="M21.2853 3.63045C18.9368 1.2907 15.8125 0.00133514 12.4874 0C9.16975 0 6.04058 1.28823 3.67661 3.62739C1.30844 5.97057 0.00305176 9.0845 0 12.3843V12.3881V12.3903C0.00038147 14.3875 0.525093 16.4023 1.52111 18.2413L0.0341416 25L6.87063 23.4449C8.60213 24.3176 10.5341 24.7776 12.4826 24.7784H12.4876C15.8047 24.7784 18.9339 23.4899 21.2982 21.1506C23.6685 18.8055 24.9744 15.6956 24.9759 12.3938C24.9769 9.11525 23.6664 6.003 21.2853 3.63045ZM12.4874 22.8271H12.483C10.7334 22.8264 8.99981 22.3871 7.46994 21.5565L7.14663 21.381L2.60067 22.415L3.58811 17.9274L3.39775 17.5991C2.45133 15.967 1.95122 14.1653 1.95122 12.3882C1.95484 6.63625 6.68088 1.95122 12.487 1.95122C15.292 1.95236 17.9276 3.03974 19.9081 5.0127C21.9187 7.01619 23.0255 9.63725 23.0246 12.3932C23.0223 18.1465 18.2953 22.8271 12.4874 22.8271Z" fill="white"/>
<path d="M9.08921 6.927H8.54177C8.35127 6.927 8.0419 6.99831 7.78021 7.28313C7.51833 7.56806 6.78033 8.25681 6.78033 9.65756C6.78033 11.0583 7.80402 12.4118 7.94671 12.6019C8.08958 12.7919 9.92271 15.7583 12.8261 16.8994C15.2391 17.8478 15.7302 17.6591 16.2538 17.6116C16.7775 17.5643 17.9439 16.9231 18.1819 16.2583C18.42 15.5936 18.42 15.0237 18.3486 14.9047C18.2771 14.7861 18.0865 14.7149 17.801 14.5726C17.5153 14.4301 16.1153 13.7298 15.8534 13.6346C15.5915 13.5398 15.4012 13.4923 15.2106 13.7774C15.0201 14.062 14.4591 14.7204 14.2925 14.9104C14.126 15.1006 13.9592 15.1244 13.6735 14.9819C13.3878 14.8391 12.4772 14.5331 11.386 13.5634C10.5367 12.8087 9.94733 11.8463 9.78058 11.5613C9.61408 11.2765 9.7629 11.1224 9.90615 10.9803C10.0345 10.8529 10.2078 10.6786 10.3507 10.5124C10.4934 10.3461 10.534 10.2275 10.6294 10.0375C10.7246 9.84756 10.6769 9.68119 10.6055 9.53894C10.534 9.39644 9.98583 7.98863 9.73177 7.42556H9.73196C9.51796 6.95144 9.29271 6.93538 9.08921 6.927Z" fill="white"/>
</svg>
