<svg width="80" height="81" viewBox="0 0 80 81" fill="none" xmlns="http://www.w3.org/2000/svg">
<g clip-path="url(#clip0)">
<path d="M44.6326 48.4141H42.4804C42.1627 48.4141 41.9053 48.6763 41.9053 48.9999C41.9053 49.3237 42.1627 49.5859 42.4804 49.5859H44.6326C44.9503 49.5859 45.2079 49.3237 45.2079 48.9999C45.2079 48.6763 44.9503 48.4141 44.6326 48.4141Z" fill="#4277FF"/>
<path d="M57.301 42.1402L54.1691 40.9095L52.5724 39.2827C52.4699 39.1783 52.3378 39.1217 52.2028 39.1129V37.8185C52.9553 37.0009 53.4911 35.9657 53.7072 34.7994C53.8414 34.8057 53.9769 34.7946 54.1106 34.7667C54.8759 34.6071 55.4313 33.8838 55.4313 33.0469V32.6197C55.4313 32.1355 55.2386 31.6911 54.9248 31.3734C55.4326 28.5593 55.0143 26.2661 53.7097 24.7311C52.4476 23.2465 50.4144 22.5369 47.83 22.6793C45.4424 22.8107 43.901 23.9301 43.4126 24.3395C43.1454 24.3718 42.69 24.4674 42.2291 24.7491C41.5903 25.1397 40.8289 25.9599 40.8289 27.6499C40.8289 29.1243 41.0602 30.3553 41.2277 31.0537C40.6664 31.3322 40.2908 31.9359 40.2908 32.6262V33.0469C40.2908 33.8837 40.8463 34.6071 41.6115 34.7667C41.7451 34.7946 41.8808 34.8055 42.0148 34.7994C42.2311 35.9657 42.7668 37.0009 43.5193 37.8183V39.1129C43.3844 39.1217 43.2522 39.1782 43.1498 39.2826L41.5529 40.9094L38.421 42.1402C38.1502 42.2466 37.8913 42.3846 37.6519 42.5503C37.3891 42.7322 37.3209 43.0966 37.4993 43.3642C37.6107 43.5311 37.7916 43.621 37.9756 43.621C38.0868 43.621 38.1992 43.5881 38.2983 43.5197C38.4653 43.4041 38.6458 43.3078 38.835 43.2334L41.7415 42.0913L43.9639 45.4874C44.2393 45.9085 44.6809 46.1786 45.1751 46.2283C45.2302 46.2339 45.2851 46.2366 45.3397 46.2366C45.6258 46.2366 45.9035 46.1601 46.1491 46.0183L45.6722 57.0394C45.6582 57.3626 45.9041 57.6363 46.2215 57.6506C46.2301 57.6509 46.2387 57.6511 46.2472 57.6511C46.5533 57.6511 46.8079 57.4054 46.8214 57.0909L47.264 46.8611H48.458L48.9006 57.0909C48.9142 57.4054 49.1688 57.6511 49.4748 57.6511C49.4833 57.6511 49.492 57.6509 49.5005 57.6506C49.8179 57.6363 50.0639 57.3626 50.0498 57.0394L49.5729 46.0183C49.8187 46.1601 50.0961 46.2366 50.3823 46.2366C50.4369 46.2366 50.492 46.2339 50.547 46.2283C51.0411 46.1786 51.4826 45.9085 51.7582 45.4874L53.9805 42.0913L56.8871 43.2334C57.2947 43.3937 57.6457 43.6491 57.9215 43.9679L55.933 45.9938C55.2146 46.7258 54.819 47.699 54.819 48.7339V57.0653C54.819 57.3889 55.0765 57.6511 55.3941 57.6511C55.7117 57.6511 55.9693 57.3889 55.9693 57.0653V48.7339C55.9693 48.0119 56.2451 47.3331 56.7463 46.8225L58.4916 45.0446C58.5617 45.3065 58.5943 45.5819 58.5833 45.8634L58.1379 57.0415C58.125 57.3649 58.3719 57.6375 58.6891 57.6507C58.6971 57.6511 58.705 57.6513 58.7129 57.6513C59.0197 57.6513 59.2747 57.4043 59.2871 57.0891L59.7328 45.9109C59.798 44.2527 58.8208 42.7374 57.301 42.1402ZM43.1408 34.5578C43.0393 33.9953 42.528 33.5863 41.9761 33.6279C41.9325 33.6311 41.8875 33.6281 41.8423 33.6186C41.6135 33.571 41.4411 33.3251 41.4411 33.0469V32.6262C41.4411 32.3543 41.6195 32.1095 41.847 32.0687C42.039 32.0345 42.2228 32.1062 42.3392 32.2609C42.4448 32.401 42.5857 32.5014 42.7464 32.5507C42.982 32.6233 43.2418 32.5807 43.4414 32.4371C43.8011 32.1785 44.1184 31.8623 44.3846 31.4977C44.5742 31.2381 44.5211 30.871 44.2663 30.6779C44.0113 30.4849 43.6511 30.5387 43.4615 30.7985C43.3288 30.9803 43.1788 31.1454 43.0137 31.2915C42.8313 31.1326 42.6183 31.0178 42.39 30.9522C42.2423 30.3755 41.9792 29.1399 41.9792 27.6498C41.9792 26.7523 42.2508 26.1218 42.7863 25.7757C43.2041 25.5057 43.6463 25.4949 43.646 25.4947C43.793 25.4947 43.9361 25.4358 44.0428 25.3329C44.0569 25.3195 45.4707 23.9827 47.892 23.8494C50.1084 23.7275 51.8193 24.2975 52.84 25.4982C53.8686 26.7083 54.2111 28.5662 53.8395 30.8917C53.6855 30.8861 53.5169 30.8979 53.349 30.9265L52.8086 29.6045C52.6984 29.3347 52.4095 29.1891 52.1321 29.2627C52.0787 29.277 46.7675 30.6487 44.5404 27.8241C44.3415 27.5718 43.9796 27.5314 43.7319 27.7341C43.4842 27.9367 43.4446 28.3055 43.6437 28.5578C45.9178 31.4423 50.4303 30.8149 51.9324 30.5089L52.3502 31.5311C52.5299 31.9706 52.9895 32.2106 53.4426 32.1018C53.6286 32.0571 53.8063 32.0562 53.873 32.0695C54.1055 32.1167 54.2809 32.3531 54.2809 32.6195V33.0469C54.2809 33.3251 54.1085 33.5709 53.8797 33.6186C53.8346 33.6281 53.7894 33.6311 53.7459 33.6279C53.1942 33.5869 52.6828 33.995 52.5813 34.5578C52.163 36.8785 50.1778 38.5629 47.861 38.5629C45.5442 38.5629 43.5592 36.8785 43.1408 34.5578ZM45.6921 44.9153C45.5463 45.0639 45.3768 45.0711 45.2885 45.0623C45.2005 45.0534 45.0355 45.0123 44.9211 44.8375L42.6823 41.4162L43.5826 40.499L47.0196 43.5629L45.6921 44.9153ZM47.3147 45.6893L47.3495 44.8841L47.8609 44.363L48.3724 44.8841L48.4072 45.6893H47.3147ZM47.861 42.7557L44.6697 39.9107V38.7894C45.5975 39.3906 46.6953 39.7347 47.861 39.7347C49.0267 39.7347 50.1246 39.3906 51.0525 38.7894V39.9107L47.861 42.7557ZM50.8011 44.8375C50.6867 45.0125 50.5217 45.0534 50.4337 45.0623C50.3454 45.0711 50.1759 45.0639 50.0299 44.9153L48.7024 43.5629L52.1395 40.4989L53.0399 41.4162L50.8011 44.8375Z" fill="#4277FF"/>
<path d="M38.7122 45.2112L35.9039 43.9624L34.3688 42.3984C34.2659 42.2936 34.1337 42.2374 33.9991 42.2286V41.3068C35.3111 40.4284 36.2712 39.0315 36.5797 37.3668C36.7308 37.3738 36.8833 37.359 37.0335 37.3228C37.7695 37.1454 38.3036 36.4268 38.3036 35.6144V35.1872C38.3036 34.5936 38.0146 34.0596 37.5666 33.7463C37.6984 33.2146 37.7655 32.6706 37.7655 32.123C37.7655 29.6955 36.4775 27.5574 34.5361 26.3298C34.5155 24.3038 32.818 22.6615 30.7335 22.6615C28.6489 22.6615 26.9515 24.3038 26.9308 26.3298C24.9895 27.5574 23.7015 29.6956 23.7015 32.123C23.7015 32.669 23.7682 33.2114 23.8992 33.7416C23.4515 34.0534 23.1633 34.5899 23.1633 35.1936V35.6144C23.1633 36.4268 23.6975 37.1454 24.4334 37.3228C24.5837 37.3591 24.7362 37.3738 24.8873 37.3668C25.1959 39.0315 26.156 40.4284 27.468 41.3068V42.2286C27.3334 42.2374 27.2013 42.2936 27.0984 42.3984L25.5632 43.9624L22.7549 45.2112C21.326 45.8467 20.4104 47.3399 20.4765 48.9268L20.8161 57.0904C20.8293 57.4052 21.0839 57.6515 21.3903 57.6515C21.3986 57.6515 21.4068 57.6514 21.4151 57.651C21.7325 57.6374 21.9788 57.3642 21.9654 57.0408L21.6257 48.8771C21.6039 48.3511 21.738 47.8407 21.9903 47.4015L23.4999 49.247C23.9769 49.8302 24.2396 50.5694 24.2396 51.3284V57.0656C24.2396 57.3892 24.497 57.6515 24.8147 57.6515C25.1324 57.6515 25.3898 57.3892 25.3898 57.0656V51.3284C25.3898 50.2958 25.0324 49.2902 24.3835 48.4967L22.7787 46.5348C22.9152 46.439 23.0601 46.3542 23.2151 46.2852L25.6626 45.1968L27.3921 48.057C27.563 48.3394 27.8453 48.5308 28.1669 48.5824C28.2248 48.5916 28.2827 48.5962 28.3405 48.5962C28.6033 48.5962 28.8595 48.5012 29.0626 48.3247L30.1586 47.372V57.0655C30.1586 57.3891 30.4161 57.6515 30.7337 57.6515C31.0513 57.6515 31.3089 57.3891 31.3089 57.0655V47.3722L32.4048 48.3248C32.6079 48.5015 32.864 48.5964 33.1268 48.5964C33.1845 48.5964 33.2426 48.5918 33.3004 48.5826C33.622 48.531 33.9044 48.3395 34.0752 48.0571L35.8048 45.197L38.2522 46.2854C38.4071 46.3543 38.5522 46.4391 38.6886 46.5348L37.0839 48.4968C36.4349 49.2902 36.0775 50.2959 36.0775 51.3284V57.0658C36.0775 57.3892 36.3349 57.6516 36.6526 57.6516C36.9703 57.6516 37.2277 57.3892 37.2277 57.0658V51.3284C37.2277 50.5694 37.4904 49.8302 37.9675 49.247L39.477 47.4015C39.7293 47.8408 39.8635 48.3512 39.8417 48.8772L39.502 57.0408C39.4886 57.3642 39.735 57.6374 40.0522 57.6511C40.0606 57.6515 40.0688 57.6516 40.077 57.6516C40.3835 57.6516 40.6382 57.4054 40.6513 57.0904L40.9909 48.927C41.0569 47.3399 40.1411 45.8467 38.7122 45.2112ZM30.7337 23.8334C31.9571 23.8334 32.9895 24.6286 33.2948 25.7062C32.5009 25.4008 31.6369 25.233 30.7337 25.233C29.8303 25.233 28.9664 25.4008 28.1724 25.7062C28.4777 24.6286 29.5099 23.8334 30.7337 23.8334ZM26.0133 37.1254C25.9119 36.5627 25.3997 36.1539 24.8486 36.1955C24.7999 36.199 24.7494 36.1947 24.6984 36.1824C24.4791 36.1295 24.3137 35.8854 24.3137 35.6144V35.1936C24.3137 34.9218 24.492 34.677 24.7196 34.6363C24.9116 34.6019 25.0953 34.6738 25.2116 34.8282C25.3173 34.9686 25.458 35.0688 25.6191 35.1183C25.8546 35.1908 26.1144 35.1483 26.3139 35.0046C26.6682 34.7499 26.9814 34.4395 27.2449 34.0819C27.4356 33.8232 27.3842 33.4559 27.1303 33.2616C26.8762 33.0674 26.5157 33.1196 26.325 33.3783C26.1946 33.5552 26.0477 33.7162 25.8862 33.8591C25.6401 33.6447 25.3384 33.5104 25.0183 33.4698C24.9081 33.0284 24.8517 32.5771 24.8517 32.1231C24.8517 28.9702 27.4903 26.4048 30.7337 26.4048C33.9769 26.4048 36.6155 28.97 36.6155 32.1231C36.6155 32.5763 36.5593 33.0266 36.4495 33.4672C36.2982 33.4795 36.1444 33.5047 36.0019 33.5423L35.5697 33.1802C35.3524 32.9982 35.079 32.907 34.8022 32.9238C33.9568 32.9747 29.6273 33.0911 27.406 30.3828C27.2023 30.1346 26.8397 30.1015 26.596 30.309C26.3521 30.5164 26.3197 30.886 26.5233 31.1343C27.6189 32.47 29.2257 33.3732 31.2991 33.8188C32.8864 34.16 34.2977 34.1268 34.8506 34.0947L35.525 34.6599C35.7107 34.8154 35.9711 34.8374 36.1789 34.714C36.2765 34.6599 36.6032 34.6082 36.7457 34.6372C36.9783 34.6843 37.1537 34.9207 37.1537 35.1872V35.6144C37.1537 35.8854 36.9882 36.1296 36.7689 36.1824C36.718 36.1947 36.6675 36.1991 36.6187 36.1954C36.0679 36.1546 35.5555 36.5627 35.4539 37.1254C35.0356 39.446 33.0504 41.1304 30.7337 41.1304C28.4169 41.1304 26.4317 39.446 26.0133 37.1254ZM28.3488 47.4048L26.6189 44.5442L27.5051 43.6414L29.8868 46.0678L28.3488 47.4048ZM30.7337 45.2731L28.6183 43.1182V41.9059C29.2787 42.162 29.9922 42.3023 30.7337 42.3023C31.4749 42.3023 32.1886 42.162 32.8489 41.906V43.1182L30.7337 45.2731ZM33.1184 47.4048L31.5805 46.0678L33.9622 43.6414L34.8482 44.5442L33.1184 47.4048Z" fill="#4277FF"/>
<path d="M28.5813 50.9974H26.9669C26.6494 50.9974 26.3918 51.2597 26.3918 51.5833C26.3918 51.9069 26.6494 52.1693 26.9669 52.1693H28.5813C28.8988 52.1693 29.1564 51.9069 29.1564 51.5833C29.1564 51.2597 28.8988 50.9974 28.5813 50.9974Z" fill="#4277FF"/>
<path d="M40.1848 80.1563C62.1387 80.1563 80 62.2124 80 40.1563C80 18.1001 62.1387 0.15625 40.1848 0.15625C18.2309 0.15625 0.369629 18.1001 0.369629 40.1563C0.369629 52.1812 5.68199 63.4573 14.9445 71.0931C15.9212 71.898 17.3626 71.7557 18.1642 70.774C18.9656 69.7929 18.8235 68.3448 17.8469 67.5399C9.64719 60.7805 4.94451 50.7996 4.94451 40.156C4.94451 20.6341 20.7532 4.75207 40.1848 4.75207C59.6165 4.75207 75.4252 20.6344 75.4252 40.1563C75.4252 59.6781 59.6165 75.5601 40.1848 75.5601C38.9212 75.5601 37.8974 76.5891 37.8974 77.8583C37.8974 79.1273 38.9212 80.1563 40.1848 80.1563Z" fill="#4277FF"/>
</g>
<defs>
<clipPath id="clip0">
<rect y="0.15625" width="80" height="80" rx="10" fill="white"/>
</clipPath>
</defs>
</svg>
